<?xml version="1.0" encoding="UTF-8"?>
<!DOCTYPE svg PUBLIC "-//W3C//DTD SVG 1.1//EN" "http://www.w3.org/Graphics/SVG/1.1/DTD/svg11.dtd">
<svg version="1.2" width="135.72mm" height="135.72mm" viewBox="4500 12828 13572 13572" preserveAspectRatio="xMidYMid" fill-rule="evenodd" stroke-width="28.222" stroke-linejoin="round" xmlns="http://www.w3.org/2000/svg" xmlns:ooo="http://xml.openoffice.org/svg/export" xmlns:xlink="http://www.w3.org/1999/xlink" xmlns:presentation="http://sun.com/xmlns/staroffice/presentation" xmlns:smil="http://www.w3.org/2001/SMIL20/" xmlns:anim="urn:oasis:names:tc:opendocument:xmlns:animation:1.0" xml:space="preserve">
 <defs class="ClipPathGroup">
  <clipPath id="presentation_clip_path" clipPathUnits="userSpaceOnUse">
   <rect x="4500" y="12828" width="13572" height="13572"/>
  </clipPath>
  <clipPath id="presentation_clip_path_shrink" clipPathUnits="userSpaceOnUse">
   <rect x="4513" y="12841" width="13545" height="13545"/>
  </clipPath>
 </defs>
 <defs class="TextShapeIndex">
  <g ooo:slide="id1" ooo:id-list="id3 id4 id5"/>
 </defs>
 <defs class="EmbeddedBulletChars">
  <g id="bullet-char-template-57356" transform="scale(0.00048828125,-0.00048828125)">
   <path d="M 580,1141 L 1163,571 580,0 -4,571 580,1141 Z"/>
  </g>
  <g id="bullet-char-template-57354" transform="scale(0.00048828125,-0.00048828125)">
   <path d="M 8,1128 L 1137,1128 1137,0 8,0 8,1128 Z"/>
  </g>
  <g id="bullet-char-template-10146" transform="scale(0.00048828125,-0.00048828125)">
   <path d="M 174,0 L 602,739 174,1481 1456,739 174,0 Z M 1358,739 L 309,1346 659,739 1358,739 Z"/>
  </g>
  <g id="bullet-char-template-10132" transform="scale(0.00048828125,-0.00048828125)">
   <path d="M 2015,739 L 1276,0 717,0 1260,543 174,543 174,936 1260,936 717,1481 1274,1481 2015,739 Z"/>
  </g>
  <g id="bullet-char-template-10007" transform="scale(0.00048828125,-0.00048828125)">
   <path d="M 0,-2 C -7,14 -16,27 -25,37 L 356,567 C 262,823 215,952 215,954 215,979 228,992 255,992 264,992 276,990 289,987 310,991 331,999 354,1012 L 381,999 492,748 772,1049 836,1024 860,1049 C 881,1039 901,1025 922,1006 886,937 835,863 770,784 769,783 710,716 594,584 L 774,223 C 774,196 753,168 711,139 L 727,119 C 717,90 699,76 672,76 641,76 570,178 457,381 L 164,-76 C 142,-110 111,-127 72,-127 30,-127 9,-110 8,-76 1,-67 -2,-52 -2,-32 -2,-23 -1,-13 0,-2 Z"/>
  </g>
  <g id="bullet-char-template-10004" transform="scale(0.00048828125,-0.00048828125)">
   <path d="M 285,-33 C 182,-33 111,30 74,156 52,228 41,333 41,471 41,549 55,616 82,672 116,743 169,778 240,778 293,778 328,747 346,684 L 369,508 C 377,444 397,411 428,410 L 1163,1116 C 1174,1127 1196,1133 1229,1133 1271,1133 1292,1118 1292,1087 L 1292,965 C 1292,929 1282,901 1262,881 L 442,47 C 390,-6 338,-33 285,-33 Z"/>
  </g>
  <g id="bullet-char-template-9679" transform="scale(0.00048828125,-0.00048828125)">
   <path d="M 813,0 C 632,0 489,54 383,161 276,268 223,411 223,592 223,773 276,916 383,1023 489,1130 632,1184 813,1184 992,1184 1136,1130 1245,1023 1353,916 1407,772 1407,592 1407,412 1353,268 1245,161 1136,54 992,0 813,0 Z"/>
  </g>
  <g id="bullet-char-template-8226" transform="scale(0.00048828125,-0.00048828125)">
   <path d="M 346,457 C 273,457 209,483 155,535 101,586 74,649 74,723 74,796 101,859 155,911 209,963 273,989 346,989 419,989 480,963 531,910 582,859 608,796 608,723 608,648 583,586 532,535 482,483 420,457 346,457 Z"/>
  </g>
  <g id="bullet-char-template-8211" transform="scale(0.00048828125,-0.00048828125)">
   <path d="M -4,459 L 1135,459 1135,606 -4,606 -4,459 Z"/>
  </g>
  <g id="bullet-char-template-61548" transform="scale(0.00048828125,-0.00048828125)">
   <path d="M 173,740 C 173,903 231,1043 346,1159 462,1274 601,1332 765,1332 928,1332 1067,1274 1183,1159 1299,1043 1357,903 1357,740 1357,577 1299,437 1183,322 1067,206 928,148 765,148 601,148 462,206 346,322 231,437 173,577 173,740 Z"/>
  </g>
 </defs>
 <defs class="TextEmbeddedBitmaps"/>
 <g class="SlideGroup">
  <g>
   <g id="container-id1">
    <g id="id1" class="Slide" clip-path="url(#presentation_clip_path)">
     <g class="Page">
      <g class="Graphic">
       <g id="id3">
        <rect class="BoundingBox" stroke="none" fill="none" x="4500" y="12828" width="13573" height="13573"/>
        <path fill="rgb(255,184,0)" stroke="none" d="M 5473,14816 L 8737,14816 9521,15708 17059,15708 17576,15708 17576,23524 C 17576,23810 17346,24041 17059,24041 L 5473,24041 C 5187,24041 4956,23810 4956,23524 L 4956,14816 5473,14816 Z"/>
        <path fill="rgb(250,236,109)" stroke="none" d="M 4956,16431 L 17576,16431 17576,24764 4956,24764 4956,16431 Z"/>
        <path fill="rgb(255,184,0)" stroke="none" d="M 4956,24239 L 17576,24239 17576,24137 4956,24137 4956,24239 Z"/>
        <path fill="rgb(255,184,0)" stroke="none" d="M 4956,24059 L 17576,24059 17576,23956 4956,23956 4956,24059 Z"/>
       </g>
      </g>
      <g class="Graphic">
       <g id="id4">
        <rect class="BoundingBox" stroke="none" fill="none" x="10700" y="19800" width="1296" height="1296"/>
        <defs>
         <clipPath id="clip_path_1" clipPathUnits="userSpaceOnUse">
          <path d="M 11347,21029 C 11669,21029 11929,20769 11929,20447 L 11929,20447 C 11929,20126 11669,19866 11347,19866 11026,19866 10766,20126 10766,20447 L 10766,20447 C 10766,20769 11026,21029 11347,21029 Z"/>
         </clipPath>
        </defs>
        <g clip-path="url(#clip_path_1)">
         <path fill="rgb(255,147,0)" stroke="none" d="M 10767,21056 L 10767,20992 11930,20990 11930,21054 10767,21056 Z"/>
         <path fill="rgb(255,147,0)" stroke="none" d="M 10767,21044 L 10767,20952 11930,20950 11930,21042 10767,21044 Z"/>
         <path fill="rgb(255,149,0)" stroke="none" d="M 10767,21005 L 10767,20912 11930,20910 11930,21002 10767,21005 Z"/>
         <path fill="rgb(255,152,0)" stroke="none" d="M 10767,20965 L 10767,20872 11930,20870 11930,20962 10767,20965 Z"/>
         <path fill="rgb(255,154,0)" stroke="none" d="M 10767,20925 L 10767,20832 11930,20830 11930,20922 10767,20925 Z"/>
         <path fill="rgb(255,156,0)" stroke="none" d="M 10767,20885 L 10767,20793 11930,20790 11930,20883 10767,20885 Z"/>
         <path fill="rgb(255,159,0)" stroke="none" d="M 10767,20845 L 10767,20753 11930,20750 11930,20843 10767,20845 Z"/>
         <path fill="rgb(255,161,0)" stroke="none" d="M 10767,20805 L 10766,20713 11930,20710 11930,20803 10767,20805 Z"/>
         <path fill="rgb(255,163,0)" stroke="none" d="M 10767,20765 L 10766,20673 11929,20671 11930,20763 10767,20765 Z"/>
         <path fill="rgb(255,166,1)" stroke="none" d="M 10767,20725 L 10766,20633 11929,20631 11930,20723 10767,20725 Z"/>
         <path fill="rgb(255,168,1)" stroke="none" d="M 10766,20686 L 10766,20593 11929,20591 11930,20683 10766,20686 Z"/>
         <path fill="rgb(255,170,1)" stroke="none" d="M 10766,20646 L 10766,20553 11929,20551 11929,20643 10766,20646 Z"/>
         <path fill="rgb(255,173,1)" stroke="none" d="M 10766,20606 L 10766,20513 11929,20511 11929,20603 10766,20606 Z"/>
         <path fill="rgb(255,175,1)" stroke="none" d="M 10766,20566 L 10766,20474 11929,20471 11929,20564 10766,20566 Z"/>
         <path fill="rgb(255,177,1)" stroke="none" d="M 10766,20526 L 10766,20434 11929,20431 11929,20524 10766,20526 Z"/>
         <path fill="rgb(255,180,1)" stroke="none" d="M 10766,20486 L 10766,20394 11929,20391 11929,20484 10766,20486 Z"/>
         <path fill="rgb(255,182,1)" stroke="none" d="M 10766,20446 L 10766,20354 11929,20352 11929,20444 10766,20446 Z"/>
         <path fill="rgb(255,185,1)" stroke="none" d="M 10766,20406 L 10766,20314 11929,20312 11929,20404 10766,20406 Z"/>
         <path fill="rgb(255,187,1)" stroke="none" d="M 10766,20367 L 10766,20274 11929,20272 11929,20364 10766,20367 Z"/>
         <path fill="rgb(255,189,1)" stroke="none" d="M 10766,20327 L 10766,20234 11929,20232 11929,20324 10766,20327 Z"/>
         <path fill="rgb(255,192,1)" stroke="none" d="M 10766,20287 L 10765,20194 11929,20192 11929,20284 10766,20287 Z"/>
         <path fill="rgb(255,194,1)" stroke="none" d="M 10766,20247 L 10765,20155 11928,20152 11929,20245 10766,20247 Z"/>
         <path fill="rgb(255,196,1)" stroke="none" d="M 10765,20207 L 10765,20115 11928,20112 11929,20205 10765,20207 Z"/>
         <path fill="rgb(255,199,2)" stroke="none" d="M 10765,20167 L 10765,20075 11928,20072 11928,20165 10765,20167 Z"/>
         <path fill="rgb(255,201,2)" stroke="none" d="M 10765,20127 L 10765,20035 11928,20033 11928,20125 10765,20127 Z"/>
         <path fill="rgb(255,203,2)" stroke="none" d="M 10765,20087 L 10765,19995 11928,19993 11928,20085 10765,20087 Z"/>
         <path fill="rgb(255,206,2)" stroke="none" d="M 10765,20048 L 10765,19955 11928,19953 11928,20045 10765,20048 Z"/>
         <path fill="rgb(255,208,2)" stroke="none" d="M 10765,20008 L 10765,19915 11928,19913 11928,20005 10765,20008 Z"/>
         <path fill="rgb(255,210,2)" stroke="none" d="M 10765,19968 L 10765,19875 11928,19873 11928,19965 10765,19968 Z"/>
         <path fill="rgb(255,213,2)" stroke="none" d="M 10765,19928 L 10765,19836 11928,19833 11928,19926 10765,19928 Z"/>
        </g>
        <defs>
         <clipPath id="clip_path_2" clipPathUnits="userSpaceOnUse">
          <path d="M 11348,20077 C 11228,20077 11168,20108 11168,20162 L 11168,20232 11348,20232 11348,20262 11101,20262 C 11043,20262 10988,20324 10988,20447 10988,20571 11043,20632 11101,20632 L 11138,20632 11138,20525 C 11138,20473 11178,20432 11228,20432 L 11437,20432 C 11487,20432 11527,20391 11527,20340 L 11527,20162 C 11527,20108 11467,20077 11348,20077 Z M 11273,20143 C 11277,20146 11281,20150 11284,20155 11286,20160 11288,20164 11288,20170 11288,20176 11286,20180 11284,20185 11281,20190 11277,20194 11273,20197 11268,20200 11263,20201 11258,20201 11258,20201 11258,20201 11258,20201 11252,20201 11248,20200 11243,20197 11238,20194 11235,20190 11232,20185 11229,20180 11228,20176 11228,20170 11228,20164 11229,20160 11232,20155 11235,20150 11238,20146 11243,20143 11248,20140 11252,20139 11258,20139 11258,20139 11258,20139 11258,20139 11263,20139 11268,20140 11273,20143 Z M 11557,20262 L 11557,20370 C 11557,20422 11517,20463 11467,20463 L 11258,20463 C 11208,20463 11168,20504 11168,20555 L 11168,20733 C 11168,20787 11228,20817 11347,20817 11467,20817 11527,20787 11527,20733 L 11527,20663 11347,20663 11347,20632 11594,20632 C 11652,20632 11707,20571 11707,20447 11707,20324 11652,20262 11594,20262 L 11557,20262 Z M 11437,20694 C 11437,20694 11437,20694 11437,20694 11443,20694 11447,20695 11452,20698 11457,20701 11460,20705 11463,20710 11466,20715 11467,20719 11467,20725 11467,20731 11466,20735 11463,20740 11460,20745 11457,20749 11452,20752 11447,20755 11443,20756 11437,20756 11437,20756 11437,20756 11437,20756 11432,20756 11427,20755 11422,20752 11418,20749 11414,20745 11411,20740 11409,20735 11407,20731 11407,20725 11407,20719 11409,20715 11411,20710 11414,20705 11418,20701 11422,20698 11427,20695 11432,20694 11437,20694 Z"/>
         </clipPath>
        </defs>
        <g clip-path="url(#clip_path_2)">
         <path fill="rgb(230,230,230)" stroke="none" d="M 21610,20818 L 10962,20818 10962,20077 21610,20077 21610,20818 Z"/>
        </g>
       </g>
      </g>
      <g class="Graphic">
       <g id="id5">
        <rect class="BoundingBox" stroke="none" fill="none" x="7400" y="16500" width="7401" height="7401"/>
        <defs>
         <clipPath id="clip_path_3" clipPathUnits="userSpaceOnUse">
          <path d="M 11100,23522 C 12935,23522 14422,22035 14422,20200 L 14422,20200 C 14422,18365 12935,16878 11100,16878 9265,16878 7778,18365 7778,20200 L 7778,20200 C 7778,22035 9265,23522 11100,23522 Z"/>
         </clipPath>
        </defs>
        <g clip-path="url(#clip_path_3)">
         <path fill="rgb(255,147,0)" stroke="none" d="M 7784,23555 L 7783,23435 14429,23421 14430,23542 7784,23555 Z"/>
         <path fill="rgb(255,147,0)" stroke="none" d="M 7783,23487 L 7783,23337 14429,23324 14430,23474 7783,23487 Z"/>
         <path fill="rgb(255,148,0)" stroke="none" d="M 7783,23390 L 7783,23240 14429,23227 14429,23377 7783,23390 Z"/>
         <path fill="rgb(255,149,0)" stroke="none" d="M 7783,23293 L 7783,23143 14429,23130 14429,23280 7783,23293 Z"/>
         <path fill="rgb(255,150,0)" stroke="none" d="M 7783,23196 L 7783,23046 14429,23033 14429,23182 7783,23196 Z"/>
         <path fill="rgb(255,151,0)" stroke="none" d="M 7783,23098 L 7782,22949 14429,22936 14429,23085 7783,23098 Z"/>
         <path fill="rgb(255,152,0)" stroke="none" d="M 7782,23001 L 7782,22852 14428,22838 14429,22988 7782,23001 Z"/>
         <path fill="rgb(255,153,0)" stroke="none" d="M 7782,22904 L 7782,22754 14428,22741 14428,22891 7782,22904 Z"/>
         <path fill="rgb(255,154,0)" stroke="none" d="M 7782,22807 L 7782,22657 14428,22644 14428,22794 7782,22807 Z"/>
         <path fill="rgb(255,155,0)" stroke="none" d="M 7782,22710 L 7782,22560 14428,22547 14428,22697 7782,22710 Z"/>
         <path fill="rgb(255,156,0)" stroke="none" d="M 7782,22613 L 7781,22463 14428,22450 14428,22599 7782,22613 Z"/>
         <path fill="rgb(255,157,0)" stroke="none" d="M 7781,22515 L 7781,22366 14427,22353 14428,22502 7781,22515 Z"/>
         <path fill="rgb(255,158,0)" stroke="none" d="M 7781,22418 L 7781,22269 14427,22255 14427,22405 7781,22418 Z"/>
         <path fill="rgb(255,159,0)" stroke="none" d="M 7781,22321 L 7781,22171 14427,22158 14427,22308 7781,22321 Z"/>
         <path fill="rgb(255,160,0)" stroke="none" d="M 7781,22224 L 7781,22074 14427,22061 14427,22211 7781,22224 Z"/>
         <path fill="rgb(255,161,0)" stroke="none" d="M 7781,22127 L 7780,21977 14427,21964 14427,22114 7781,22127 Z"/>
         <path fill="rgb(255,162,0)" stroke="none" d="M 7780,22030 L 7780,21880 14426,21867 14427,22016 7780,22030 Z"/>
         <path fill="rgb(255,163,0)" stroke="none" d="M 7780,21932 L 7780,21783 14426,21770 14427,21919 7780,21932 Z"/>
         <path fill="rgb(255,164,1)" stroke="none" d="M 7780,21835 L 7780,21686 14426,21672 14426,21822 7780,21835 Z"/>
         <path fill="rgb(255,165,1)" stroke="none" d="M 7780,21738 L 7780,21588 14426,21575 14426,21725 7780,21738 Z"/>
         <path fill="rgb(255,166,1)" stroke="none" d="M 7780,21641 L 7779,21491 14426,21478 14426,21628 7780,21641 Z"/>
         <path fill="rgb(255,167,1)" stroke="none" d="M 7780,21544 L 7779,21394 14425,21381 14426,21531 7780,21544 Z"/>
         <path fill="rgb(255,168,1)" stroke="none" d="M 7779,21447 L 7779,21297 14425,21284 14426,21433 7779,21447 Z"/>
         <path fill="rgb(255,169,1)" stroke="none" d="M 7779,21349 L 7779,21200 14425,21186 14425,21336 7779,21349 Z"/>
         <path fill="rgb(255,170,1)" stroke="none" d="M 7779,21252 L 7779,21102 14425,21089 14425,21239 7779,21252 Z"/>
         <path fill="rgb(255,171,1)" stroke="none" d="M 7779,21155 L 7778,21005 14425,20992 14425,21142 7779,21155 Z"/>
         <path fill="rgb(255,172,1)" stroke="none" d="M 7779,21058 L 7778,20908 14424,20895 14425,21045 7779,21058 Z"/>
         <path fill="rgb(255,173,1)" stroke="none" d="M 7778,20961 L 7778,20811 14424,20798 14425,20947 7778,20961 Z"/>
         <path fill="rgb(255,174,1)" stroke="none" d="M 7778,20863 L 7778,20714 14424,20701 14424,20850 7778,20863 Z"/>
         <path fill="rgb(255,175,1)" stroke="none" d="M 7778,20766 L 7778,20617 14424,20603 14424,20753 7778,20766 Z"/>
         <path fill="rgb(255,176,1)" stroke="none" d="M 7778,20669 L 7778,20519 14424,20506 14424,20656 7778,20669 Z"/>
         <path fill="rgb(255,177,1)" stroke="none" d="M 7778,20572 L 7777,20422 14424,20409 14424,20559 7778,20572 Z"/>
         <path fill="rgb(255,178,1)" stroke="none" d="M 7777,20475 L 7777,20325 14423,20312 14424,20462 7777,20475 Z"/>
         <path fill="rgb(255,179,1)" stroke="none" d="M 7777,20378 L 7777,20228 14423,20215 14423,20364 7777,20378 Z"/>
         <path fill="rgb(255,180,1)" stroke="none" d="M 7777,20280 L 7777,20131 14423,20118 14423,20267 7777,20280 Z"/>
         <path fill="rgb(255,181,1)" stroke="none" d="M 7777,20183 L 7777,20034 14423,20020 14423,20170 7777,20183 Z"/>
         <path fill="rgb(255,182,1)" stroke="none" d="M 7777,20086 L 7776,19936 14423,19923 14423,20073 7777,20086 Z"/>
         <path fill="rgb(255,183,1)" stroke="none" d="M 7776,19989 L 7776,19839 14422,19826 14423,19976 7776,19989 Z"/>
         <path fill="rgb(255,184,1)" stroke="none" d="M 7776,19892 L 7776,19742 14422,19729 14422,19879 7776,19892 Z"/>
         <path fill="rgb(255,185,1)" stroke="none" d="M 7776,19795 L 7776,19645 14422,19632 14422,19781 7776,19795 Z"/>
         <path fill="rgb(255,186,1)" stroke="none" d="M 7776,19697 L 7776,19548 14422,19535 14422,19684 7776,19697 Z"/>
         <path fill="rgb(255,187,1)" stroke="none" d="M 7776,19600 L 7775,19451 14422,19437 14422,19587 7776,19600 Z"/>
         <path fill="rgb(255,188,1)" stroke="none" d="M 7776,19503 L 7775,19353 14421,19340 14422,19490 7776,19503 Z"/>
         <path fill="rgb(255,189,1)" stroke="none" d="M 7775,19406 L 7775,19256 14421,19243 14422,19393 7775,19406 Z"/>
         <path fill="rgb(255,190,1)" stroke="none" d="M 7775,19309 L 7775,19159 14421,19146 14421,19296 7775,19309 Z"/>
         <path fill="rgb(255,191,1)" stroke="none" d="M 7775,19212 L 7775,19062 14421,19049 14421,19198 7775,19212 Z"/>
         <path fill="rgb(255,192,1)" stroke="none" d="M 7775,19114 L 7774,18965 14421,18951 14421,19101 7775,19114 Z"/>
         <path fill="rgb(255,193,1)" stroke="none" d="M 7775,19017 L 7774,18867 14420,18854 14421,19004 7775,19017 Z"/>
         <path fill="rgb(255,194,1)" stroke="none" d="M 7774,18920 L 7774,18770 14420,18757 14421,18907 7774,18920 Z"/>
         <path fill="rgb(255,195,1)" stroke="none" d="M 7774,18823 L 7774,18673 14420,18660 14420,18810 7774,18823 Z"/>
         <path fill="rgb(255,196,1)" stroke="none" d="M 7774,18726 L 7774,18576 14420,18563 14420,18712 7774,18726 Z"/>
         <path fill="rgb(255,197,1)" stroke="none" d="M 7774,18628 L 7773,18479 14420,18466 14420,18615 7774,18628 Z"/>
         <path fill="rgb(255,198,1)" stroke="none" d="M 7774,18531 L 7773,18382 14419,18368 14420,18518 7774,18531 Z"/>
         <path fill="rgb(255,199,2)" stroke="none" d="M 7773,18434 L 7773,18284 14419,18271 14420,18421 7773,18434 Z"/>
         <path fill="rgb(255,200,2)" stroke="none" d="M 7773,18337 L 7773,18187 14419,18174 14419,18324 7773,18337 Z"/>
         <path fill="rgb(255,201,2)" stroke="none" d="M 7773,18240 L 7773,18090 14419,18077 14419,18227 7773,18240 Z"/>
         <path fill="rgb(255,202,2)" stroke="none" d="M 7773,18143 L 7773,17993 14419,17980 14419,18129 7773,18143 Z"/>
         <path fill="rgb(255,203,2)" stroke="none" d="M 7773,18045 L 7772,17896 14419,17883 14419,18032 7773,18045 Z"/>
         <path fill="rgb(255,204,2)" stroke="none" d="M 7772,17948 L 7772,17799 14418,17785 14419,17935 7772,17948 Z"/>
         <path fill="rgb(255,205,2)" stroke="none" d="M 7772,17851 L 7772,17701 14418,17688 14418,17838 7772,17851 Z"/>
         <path fill="rgb(255,206,2)" stroke="none" d="M 7772,17754 L 7772,17604 14418,17591 14418,17741 7772,17754 Z"/>
         <path fill="rgb(255,207,2)" stroke="none" d="M 7772,17657 L 7772,17507 14418,17494 14418,17644 7772,17657 Z"/>
         <path fill="rgb(255,208,2)" stroke="none" d="M 7772,17560 L 7771,17410 14418,17397 14418,17546 7772,17560 Z"/>
         <path fill="rgb(255,209,2)" stroke="none" d="M 7771,17462 L 7771,17313 14417,17300 14418,17449 7771,17462 Z"/>
         <path fill="rgb(255,210,2)" stroke="none" d="M 7771,17365 L 7771,17216 14417,17202 14417,17352 7771,17365 Z"/>
         <path fill="rgb(255,211,2)" stroke="none" d="M 7771,17268 L 7771,17118 14417,17105 14417,17255 7771,17268 Z"/>
         <path fill="rgb(255,212,2)" stroke="none" d="M 7771,17171 L 7771,17021 14417,17008 14417,17158 7771,17171 Z"/>
         <path fill="rgb(255,213,2)" stroke="none" d="M 7771,17074 L 7770,16924 14417,16911 14417,17061 7771,17074 Z"/>
         <path fill="rgb(255,214,2)" stroke="none" d="M 7771,16977 L 7770,16827 14416,16814 14417,16963 7771,16977 Z"/>
        </g>
        <defs>
         <clipPath id="clip_path_4" clipPathUnits="userSpaceOnUse">
          <path d="M 11100,18086 C 10416,18086 10074,18262 10074,18570 L 10074,18967 11100,18967 11100,19143 9689,19143 C 9357,19143 9048,19495 9048,20200 9048,20905 9357,21257 9689,21257 L 9903,21257 9903,20640 C 9903,20348 10132,20112 10416,20112 L 11613,20112 C 11897,20112 12126,19876 12126,19583 L 12126,18570 C 12126,18262 11784,18086 11100,18086 Z M 10672,18462 C 10700,18478 10719,18498 10735,18526 10751,18554 10758,18582 10758,18614 10758,18647 10751,18674 10735,18702 10719,18730 10700,18751 10672,18767 10645,18783 10618,18790 10587,18790 10587,18790 10587,18790 10587,18790 10556,18790 10529,18783 10501,18767 10474,18751 10455,18730 10439,18702 10423,18674 10416,18647 10416,18614 10416,18582 10423,18554 10439,18526 10455,18498 10474,18478 10501,18462 10529,18446 10556,18438 10587,18438 10587,18438 10587,18438 10587,18438 10618,18438 10645,18446 10672,18462 Z M 12297,19143 L 12297,19760 C 12297,20052 12068,20288 11784,20288 L 10586,20288 C 10302,20288 10073,20524 10073,20817 L 10073,21830 C 10073,22138 10415,22314 11099,22314 11784,22314 12126,22138 12126,21830 L 12126,21433 11099,21433 11099,21257 12511,21257 C 12842,21257 13152,20905 13152,20200 13152,19495 12842,19143 12511,19143 L 12297,19143 Z M 11613,21610 C 11613,21610 11613,21610 11613,21610 11644,21610 11671,21617 11699,21633 11726,21649 11745,21670 11761,21698 11777,21726 11784,21753 11784,21786 11784,21818 11777,21846 11761,21874 11745,21902 11726,21922 11699,21938 11671,21954 11644,21962 11613,21962 11613,21962 11613,21962 11613,21962 11582,21962 11555,21954 11528,21938 11500,21922 11481,21902 11465,21874 11449,21846 11442,21818 11442,21786 11442,21753 11449,21726 11465,21698 11481,21670 11500,21649 11528,21633 11555,21617 11582,21610 11613,21610 Z"/>
         </clipPath>
        </defs>
        <g clip-path="url(#clip_path_4)">
         <path fill="rgb(230,230,230)" stroke="none" d="M 69620,22315 L 9021,22315 9021,18085 69620,18085 69620,22315 Z"/>
        </g>
       </g>
      </g>
     </g>
    </g>
   </g>
  </g>
 </g>
</svg>